<svg width="32" height="32" viewbox="0 0 32 32" fill="none" xmlns="http://www.w3.org/2000/svg">
  <rect width="32" height="32" rx="6" fill="#A445D3"/>
  <path d="M26.2667 24.5714C26.6718 24.5714 27 24.8911 27 25.2857V26H19.6667V25.2857C19.6667 24.8911 19.9948 24.5714 20.4 24.5714H26.2667Z" fill="white"/>
  <path d="M26.2667 24.5714V23.8571C26.2667 23.4625 25.9385 23.1429 25.5333 23.1429H21.1333C20.7282 23.1429 20.4 23.4625 20.4 23.8571V24.5714H26.2667Z" fill="white"/>
  <path d="M23.3333 6H8.66667V8.85714H23.3333V6Z" fill="white"/>
  <path d="M26.2667 11.7143H5.73333L5 8.85714H27L26.2667 11.7143Z" fill="white"/>
  <path d="M25.5333 11.7143H21.1333L21.1333 23.1429H25.5333V11.7143Z" fill="white"/>
  <path d="M11.6 24.5714C12.0052 24.5714 12.3333 24.8911 12.3333 25.2857V26H5V25.2857C5 24.8911 5.32817 24.5714 5.73333 24.5714H11.6Z" fill="white"/>
  <path d="M11.6 24.5714V23.8571C11.6 23.4625 11.2718 23.1429 10.8667 23.1429H6.46667C6.0615 23.1429 5.73333 23.4625 5.73333 23.8571L5.73333 24.5714H11.6Z" fill="white"/>
  <path d="M10.8667 11.7143H6.46667L6.46667 23.1429H10.8667L10.8667 11.7143Z" fill="white"/>
  <path d="M10.8667 17.3714C10.8667 14.61 13.1649 12.3714 16 12.3714C18.8351 12.3714 21.1333 14.61 21.1333 17.3714L21.1333 11.7143H10.8667L10.8667 17.3714Z" fill="white"/>
</svg>